<?xml version="1.0" encoding="UTF-8"?>
<!DOCTYPE svg PUBLIC "-//W3C//DTD SVG 1.1//EN" "http://www.w3.org/Graphics/SVG/1.1/DTD/svg11.dtd">
<!-- Creator: CorelDRAW X8 -->
<svg xmlns="http://www.w3.org/2000/svg" xml:space="preserve" width="20.7818cm" height="6.92726cm" version="1.1" style="shape-rendering:geometricPrecision; text-rendering:geometricPrecision; image-rendering:optimizeQuality; fill-rule:evenodd; clip-rule:evenodd"
viewBox="0 0 20782 6927"
 xmlns:xlink="http://www.w3.org/1999/xlink">
 <defs>
  <style type="text/css">
   <![CDATA[
    .fil2 {fill:none}
    .fil6 {fill:#FEFEFE}
    .fil7 {fill:#E62129}
    .fil4 {fill:#0074CE}
    .fil1 {fill:#49FFE9}
    .fil10 {fill:#332C2B;fill-rule:nonzero}
    .fil11 {fill:#E62129;fill-rule:nonzero}
    .fil8 {fill:#E62129;fill-rule:nonzero}
    .fil9 {fill:#0074CE;fill-rule:nonzero}
    .fil0 {fill:url(#id5)}
    .fil5 {fill:url(#id6)}
    .fil3 {fill:url(#id7)}
   ]]>
  </style>
   <clipPath id="id0">
    <path d="M4368 1209c-1251,0 -2265,1013 -2265,2264 0,1250 1014,2264 2265,2264 1250,0 2264,-1014 2264,-2264 0,-1251 -1014,-2264 -2264,-2264z"/>
   </clipPath>
    <clipPath id="id1">
     <path d="M4880 1267c28,249 14,511 -51,734 -139,473 -511,768 -790,994 -278,226 -464,383 -592,605 -127,221 -196,507 -198,765 -3,257 60,486 147,679 87,193 199,350 343,468 127,103 279,175 493,221 -1187,-70 -2129,-1055 -2129,-2260 0,-1251 1014,-2264 2265,-2264 176,0 347,20 512,58z"/>
    </clipPath>
      <mask id="id2">
  <linearGradient id="id3" gradientUnits="userSpaceOnUse" x1="4873.67" y1="974.805" x2="2933.4" y2="4940.85">
   <stop offset="0" style="stop-opacity:0.741176; stop-color:white"/>
   <stop offset="1" style="stop-opacity:0; stop-color:white"/>
  </linearGradient>
       <rect style="fill:url(#id3)" x="2946" y="260" width="2962" height="5021"/>
      </mask>
    <clipPath id="id4">
     <path d="M4368 1209c-1251,0 -2265,1013 -2265,2264 0,1250 1014,2264 2265,2264 1250,0 2264,-1014 2264,-2264 0,-1251 -1014,-2264 -2264,-2264z"/>
    </clipPath>
  <linearGradient id="id5" gradientUnits="userSpaceOnUse" x1="4463.61" y1="219.607" x2="3982.81" y2="5334.56">
   <stop offset="0" style="stop-opacity:1; stop-color:#0074CE"/>
   <stop offset="1" style="stop-opacity:1; stop-color:#0BADFF"/>
  </linearGradient>
  <linearGradient id="id6" gradientUnits="userSpaceOnUse" xlink:href="#id5" x1="4463.61" y1="219.607" x2="3982.81" y2="5334.56">
  </linearGradient>
  <linearGradient id="id7" gradientUnits="userSpaceOnUse" xlink:href="#id5" x1="4463.61" y1="219.607" x2="3982.81" y2="5334.56">
  </linearGradient>
 </defs>
 <g id="Layer_x0020_1">
  <metadata id="CorelCorpID_0Corel-Layer"/>
  <g>
  </g>
  <g style="clip-path:url(#id0)">
   <g>
    <path class="fil0" d="M4643 558c230,318 324,970 186,1443 -139,473 -511,768 -790,994 -278,226 -464,383 -592,605 -127,221 -196,507 -198,765 -3,257 60,486 147,679 87,193 199,350 343,468 145,117 322,195 587,239 265,44 619,55 543,195 -76,141 -581,409 -1076,497 -495,88 -981,-5 -1496,-357 -515,-352 -1059,-962 -1288,-1862 -228,-900 -143,-2090 355,-2796 498,-707 1407,-930 2045,-1050 638,-120 1004,-137 1234,180z"/>
   </g>
   <g style="clip-path:url(#id1)">
    <g id="_860416272">
     <path id="1" class="fil1" style="mask:url(#id2)" d="M4847 430c-45,143 5,388 27,545 23,157 17,225 -48,383 -65,158 -190,405 -457,689 -268,284 -679,605 -934,890 -256,286 -356,536 -416,782 -60,245 -80,485 -48,683 33,198 118,353 196,474 77,120 147,205 268,288 120,82 290,162 623,57 333,-105 829,-396 1197,-982 369,-586 609,-1467 639,-2133 30,-667 -150,-1117 -305,-1398 -156,-280 -286,-391 -421,-426 -135,-35 -276,5 -321,148z"/>
    </g>
   </g>
   <g style="clip-path:url(#id4)">
    <path class="fil2" d="M4643 558c230,318 324,970 186,1443 -139,473 -511,768 -790,994 -278,226 -464,383 -592,605 -127,221 -196,507 -198,765 -3,257 60,486 147,679 87,193 199,350 343,468 145,117 322,195 587,239 265,44 619,55 543,195 -76,141 -581,409 -1076,497 -495,88 -981,-5 -1496,-357 -515,-352 -1059,-962 -1288,-1862 -228,-900 -143,-2090 355,-2796 498,-707 1407,-930 2045,-1050 638,-120 1004,-137 1234,180z"/>
    <path class="fil3" d="M4822 5513c-93,25 -190,36 -290,31 -84,-4 -165,-19 -241,-43 -229,-73 -419,-230 -535,-433 86,256 279,464 528,569 100,42 208,68 323,74 40,2 79,1 118,-2 89,-14 177,-33 262,-58 29,-10 67,7 94,-6 7,1 14,3 20,4 243,-82 458,-234 656,-388 -87,30 -182,44 -279,39 -14,0 -28,-1 -41,-3 -62,-6 -122,-20 -178,-41 -300,-109 -507,-403 -490,-738 4,-97 27,-188 65,-271 -203,124 -344,344 -356,600 -14,278 125,527 344,666z"/>
    <path class="fil4" d="M5645 5069c-33,166 -122,313 -246,420l66 227 51 176c293,-106 499,-390 492,-718 -3,-127 -37,-246 -95,-350 -18,-30 -37,-60 -58,-87 -86,-112 -201,-198 -335,-247 85,117 135,261 139,417 1,40 -2,79 -7,118 -2,15 -4,29 -7,44z"/>
    <path class="fil5" d="M3486 3427c-21,84 27,163 64,228 38,65 67,117 83,180 15,63 18,137 24,178 6,40 14,48 37,40 23,-7 60,-28 104,-82 43,-55 93,-142 129,-228 35,-86 55,-170 56,-254 1,-83 -16,-166 -41,-235 -25,-69 -58,-123 -102,-136 -44,-13 -100,16 -172,75 -73,60 -161,150 -182,234z"/>
   </g>
  </g>
  <path class="fil2" d="M4368 1209c-1251,0 -2265,1013 -2265,2264 0,1250 1014,2264 2265,2264 1250,0 2264,-1014 2264,-2264 0,-1251 -1014,-2264 -2264,-2264z"/>
  <circle class="fil6" cx="3940" cy="1692" r="114"/>
  <path class="fil4" d="M2291 2236c-66,21 -140,65 -231,140 -91,76 -199,182 -284,305 -84,122 -146,260 -182,371 -37,110 -48,192 -53,247 -4,54 0,82 15,96 15,14 42,14 79,-7 38,-22 87,-65 141,-89 49,-22 102,-29 175,-31 38,-383 170,-738 374,-1041 -11,2 -22,5 -34,9z"/>
  <polygon class="fil7" points="5528,2536 6086,2291 6153,2896 6040,2832 5927,2767 5759,2669 5691,2630 "/>
  <polygon class="fil8" points="7237,4248 7237,1470 7688,1470 7688,4248 "/>
  <path id="1" class="fil8" d="M8338 4248l0 -2887 1765 1697c48,48 97,99 147,154 49,54 101,116 155,184l0 -1926 416 0 0 2887 -1800 -1729c-48,-48 -95,-97 -139,-149 -46,-52 -88,-106 -128,-163l0 1932 -416 0z"/>
  <polygon id="2" class="fil9" points="11459,4248 11459,1470 13009,1470 13009,1854 11910,1854 11910,2546 13009,2546 13009,2942 11910,2942 11910,4248 "/>
  <polygon id="3" class="fil9" points="13506,4248 13506,1470 13957,1470 13957,4248 "/>
  <path id="4" class="fil9" d="M14447 3692l360 -167c35,124 98,219 189,283 91,66 207,98 349,98 135,0 241,-37 321,-112 79,-74 118,-174 118,-299 0,-163 -135,-309 -407,-437 -38,-19 -67,-33 -87,-41 -306,-150 -510,-285 -612,-406 -102,-121 -153,-268 -153,-443 0,-226 77,-410 231,-550 153,-141 355,-211 605,-211 204,0 376,40 514,119 138,79 233,192 286,340l-352 183c-56,-88 -117,-152 -184,-192 -66,-41 -143,-61 -229,-61 -121,0 -218,32 -289,95 -72,63 -108,148 -108,254 0,167 158,323 472,467 24,12 42,21 57,27 274,127 463,250 565,371 102,121 154,272 154,452 0,263 -83,473 -249,627 -166,155 -390,233 -672,233 -237,0 -431,-54 -582,-163 -151,-109 -250,-265 -297,-467z"/>
  <polygon id="5" class="fil9" points="16739,4248 16739,1470 17190,1470 17190,2495 18558,2495 18558,1470 19009,1470 19009,4248 18558,4248 18558,2900 17190,2900 17190,4248 "/>
  <polygon class="fil10" points="7302,5235 7196,5235 7196,4620 7302,4620 "/>
  <path id="1" class="fil10" d="M7519 4778l3 53c34,-41 78,-61 133,-61 95,0 143,54 145,163l0 302 -102 0 0 -296c0,-29 -7,-51 -19,-65 -13,-13 -33,-20 -62,-20 -41,0 -72,18 -92,56l0 325 -103 0 0 -457 97 0z"/>
  <polygon id="2" class="fil10" points="8066,5105 8163,4778 8269,4778 8111,5235 8021,5235 7862,4778 7968,4778 "/>
  <path id="3" class="fil10" d="M8529 5244c-65,0 -118,-21 -158,-62 -41,-41 -61,-95 -61,-163l0 -13c0,-46 9,-87 26,-122 18,-36 43,-64 75,-84 31,-20 67,-30 106,-30 62,0 110,20 144,59 34,40 51,96 51,169l0 42 -299 0c4,37 16,67 38,89 22,22 50,33 84,33 47,0 85,-19 115,-57l55 53c-18,27 -43,48 -73,63 -31,15 -65,23 -103,23zm-12 -392c-29,0 -51,10 -69,30 -17,19 -28,47 -33,82l196 0 0 -7c-2,-35 -12,-61 -28,-79 -16,-17 -38,-26 -66,-26z"/>
  <path id="4" class="fil10" d="M9048 5111c0,-18 -8,-32 -23,-42 -15,-9 -40,-18 -75,-25 -35,-7 -64,-17 -87,-28 -51,-25 -77,-61 -77,-108 0,-39 16,-72 50,-99 33,-26 75,-39 127,-39 54,0 98,13 132,40 33,27 50,62 50,105l-102 0c0,-19 -8,-36 -22,-49 -15,-13 -34,-19 -58,-19 -23,0 -41,5 -56,15 -14,11 -21,25 -21,42 0,16 7,28 20,37 13,9 40,17 80,26 40,9 72,20 95,32 23,12 40,27 51,44 11,17 17,38 17,63 0,41 -17,74 -51,100 -34,25 -79,38 -134,38 -38,0 -71,-7 -100,-21 -30,-13 -52,-32 -69,-55 -16,-24 -24,-50 -24,-77l99 0c2,24 11,43 28,56 17,13 39,20 67,20 27,0 48,-5 62,-16 14,-10 21,-23 21,-40z"/>
  <path id="5" class="fil10" d="M9367 4668l0 110 81 0 0 76 -81 0 0 256c0,17 4,30 10,37 7,8 20,12 37,12 12,0 24,-1 36,-4l0 79c-23,7 -46,10 -67,10 -79,0 -119,-44 -119,-131l0 -259 -75 0 0 -76 75 0 0 -110 103 0z"/>
  <path id="6" class="fil10" d="M9622 4778l3 48c32,-38 76,-56 132,-56 61,0 103,23 126,70 33,-47 79,-70 140,-70 50,0 88,14 112,41 25,28 38,69 38,124l0 300 -103 0 0 -297c0,-29 -6,-51 -19,-64 -12,-14 -33,-20 -62,-20 -24,0 -43,6 -58,18 -15,13 -25,29 -31,50l1 313 -103 0 0 -301c-1,-53 -29,-80 -82,-80 -41,0 -71,16 -88,50l0 331 -102 0 0 -457 96 0z"/>
  <path id="7" class="fil10" d="M10480 5244c-65,0 -118,-21 -158,-62 -40,-41 -61,-95 -61,-163l0 -13c0,-46 9,-87 27,-122 17,-36 42,-64 74,-84 32,-20 67,-30 106,-30 63,0 111,20 144,59 34,40 51,96 51,169l0 42 -298 0c3,37 15,67 38,89 22,22 50,33 83,33 47,0 85,-19 115,-57l55 53c-18,27 -43,48 -73,63 -31,15 -65,23 -103,23zm-12 -392c-28,0 -51,10 -68,30 -18,19 -29,47 -34,82l196 0 0 -7c-2,-35 -11,-61 -27,-79 -16,-17 -39,-26 -67,-26z"/>
  <path id="8" class="fil10" d="M10838 4778l3 53c34,-41 78,-61 133,-61 95,0 144,54 145,163l0 302 -102 0 0 -296c0,-29 -6,-51 -19,-65 -13,-13 -33,-20 -61,-20 -42,0 -73,18 -93,56l0 325 -103 0 0 -457 97 0z"/>
  <path id="9" class="fil10" d="M11353 4668l0 110 81 0 0 76 -81 0 0 256c0,17 3,30 10,37 7,8 20,12 37,12 12,0 24,-1 36,-4l0 79c-23,7 -46,10 -67,10 -79,0 -119,-44 -119,-131l0 -259 -75 0 0 -76 75 0 0 -110 103 0z"/>
  <path id="10" class="fil10" d="M11764 5235l0 -381 -70 0 0 -76 70 0 0 -41c0,-51 14,-90 42,-118 28,-28 67,-41 118,-41 18,0 37,2 58,7l-3 81c-11,-2 -24,-4 -39,-4 -49,0 -74,25 -74,76l0 40 93 0 0 76 -93 0 0 381 -102 0z"/>
  <path id="11" class="fil10" d="M12014 5003c0,-45 9,-86 27,-122 18,-35 43,-63 75,-82 32,-20 69,-29 111,-29 61,0 111,20 150,59 38,40 59,93 62,158l0 24c0,45 -8,86 -25,121 -18,36 -43,63 -75,83 -32,19 -69,29 -112,29 -64,0 -116,-22 -154,-65 -39,-43 -59,-100 -59,-171l0 -5zm103 8c0,47 10,84 29,111 20,26 47,40 81,40 35,0 62,-14 81,-41 20,-27 29,-67 29,-119 0,-46 -10,-83 -30,-110 -19,-27 -46,-40 -80,-40 -34,0 -61,13 -80,40 -20,26 -30,66 -30,119z"/>
  <path id="12" class="fil10" d="M12766 4872c-14,-3 -28,-4 -42,-4 -47,0 -79,18 -95,54l0 313 -103 0 0 -457 98 0 3 51c25,-39 59,-59 103,-59 15,0 27,2 36,6l0 96z"/>
  <path id="13" class="fil10" d="M13056 5235l0 -615 211 0c69,0 122,14 158,42 37,28 55,69 55,124 0,29 -8,54 -23,76 -15,23 -37,40 -67,53 34,9 59,26 78,51 18,25 27,54 27,89 0,58 -19,103 -56,134 -37,31 -90,46 -159,46l-224 0zm107 -278l0 192 118 0c34,0 60,-8 79,-24 19,-17 28,-40 28,-70 0,-64 -32,-96 -98,-98l-127 0zm0 -78l105 0c33,0 59,-8 77,-23 19,-15 29,-36 29,-64 0,-30 -9,-52 -26,-65 -18,-14 -45,-20 -81,-20l-104 0 0 172z"/>
  <path id="14" class="fil10" d="M13793 5244c-65,0 -118,-21 -158,-62 -40,-41 -61,-95 -61,-163l0 -13c0,-46 9,-87 27,-122 17,-36 42,-64 74,-84 32,-20 67,-30 106,-30 63,0 111,20 144,59 35,40 51,96 51,169l0 42 -298 0c3,37 16,67 38,89 22,22 50,33 83,33 47,0 85,-19 115,-57l55 53c-18,27 -42,48 -73,63 -31,15 -65,23 -103,23zm-12 -392c-28,0 -51,10 -68,30 -18,19 -29,47 -33,82l195 0 0 -7c-2,-35 -11,-61 -27,-79 -16,-17 -39,-26 -67,-26z"/>
  <path id="15" class="fil10" d="M14185 4668l0 110 80 0 0 76 -80 0 0 256c0,17 3,30 10,37 7,8 19,12 37,12 12,0 24,-1 36,-4l0 79c-23,7 -46,10 -68,10 -78,0 -118,-44 -118,-131l0 -259 -75 0 0 -76 75 0 0 -110 103 0z"/>
  <path id="16" class="fil10" d="M14473 4668l0 110 80 0 0 76 -80 0 0 256c0,17 3,30 10,37 7,8 19,12 37,12 12,0 24,-1 36,-4l0 79c-24,7 -46,10 -68,10 -79,0 -118,-44 -118,-131l0 -259 -75 0 0 -76 75 0 0 -110 103 0z"/>
  <path id="17" class="fil10" d="M14833 5244c-65,0 -118,-21 -158,-62 -41,-41 -61,-95 -61,-163l0 -13c0,-46 9,-87 26,-122 18,-36 43,-64 75,-84 31,-20 67,-30 106,-30 62,0 110,20 144,59 34,40 51,96 51,169l0 42 -299 0c4,37 16,67 38,89 22,22 50,33 84,33 47,0 85,-19 115,-57l55 53c-18,27 -43,48 -73,63 -31,15 -65,23 -103,23zm-13 -392c-28,0 -50,10 -68,30 -17,19 -28,47 -33,82l196 0 0 -7c-3,-35 -12,-61 -28,-79 -16,-17 -38,-26 -67,-26z"/>
  <path id="18" class="fil10" d="M15335 4872c-13,-3 -27,-4 -42,-4 -47,0 -78,18 -95,54l0 313 -102 0 0 -457 98 0 2 51c25,-39 59,-59 103,-59 15,0 27,2 37,6l-1 96z"/>
  <polygon id="19" class="fil10" points="15979,4975 15732,4975 15732,5235 15625,5235 15625,4620 16016,4620 16016,4707 15732,4707 15732,4889 15979,4889 "/>
  <path id="20" class="fil10" d="M16199 5235l-102 0 0 -457 102 0 0 457zm-109 -576c0,-16 5,-29 15,-40 10,-10 25,-15 43,-15 19,0 33,5 43,15 11,11 16,24 16,40 0,16 -5,28 -16,39 -10,10 -24,15 -43,15 -18,0 -33,-5 -43,-15 -10,-11 -15,-23 -15,-39z"/>
  <path id="21" class="fil10" d="M16567 5111c0,-18 -7,-32 -22,-42 -15,-9 -40,-18 -75,-25 -35,-7 -64,-17 -88,-28 -51,-25 -77,-61 -77,-108 0,-39 17,-72 50,-99 34,-26 76,-39 127,-39 55,0 99,13 132,40 34,27 51,62 51,105l-103 0c0,-19 -7,-36 -22,-49 -14,-13 -34,-19 -58,-19 -23,0 -41,5 -55,15 -14,11 -21,25 -21,42 0,16 6,28 19,37 14,9 40,17 81,26 40,9 72,20 94,32 24,12 41,27 52,44 11,17 16,38 16,63 0,41 -17,74 -51,100 -34,25 -79,38 -134,38 -37,0 -71,-7 -100,-21 -29,-13 -52,-32 -68,-55 -17,-24 -25,-50 -25,-77l100 0c1,24 11,43 27,56 17,13 40,20 68,20 27,0 47,-5 61,-16 14,-10 21,-23 21,-40z"/>
  <path id="22" class="fil10" d="M16859 4828c33,-39 76,-58 127,-58 97,0 147,55 148,166l0 299 -102 0 0 -295c0,-31 -7,-54 -21,-67 -14,-13 -34,-19 -60,-19 -41,0 -72,18 -92,55l0 326 -103 0 0 -649 103 0 0 242z"/>
  <path id="23" class="fil10" d="M17440 5244c-66,0 -118,-21 -159,-62 -40,-41 -60,-95 -60,-163l0 -13c0,-46 8,-87 26,-122 18,-36 42,-64 74,-84 32,-20 67,-30 107,-30 62,0 110,20 144,59 34,40 51,96 51,169l0 42 -299 0c3,37 16,67 38,89 22,22 50,33 83,33 47,0 86,-19 115,-57l56 53c-19,27 -43,48 -74,63 -30,15 -64,23 -102,23zm-13 -392c-28,0 -51,10 -68,30 -17,19 -28,47 -33,82l195 0 0 -7c-2,-35 -11,-61 -27,-79 -16,-17 -38,-26 -67,-26z"/>
  <path id="24" class="fil10" d="M17942 4872c-14,-3 -28,-4 -42,-4 -47,0 -79,18 -95,54l0 313 -103 0 0 -457 98 0 3 51c25,-39 59,-59 103,-59 15,0 27,2 36,6l0 96z"/>
  <path id="25" class="fil10" d="M18115 5235l-102 0 0 -457 102 0 0 457zm-109 -576c0,-16 6,-29 15,-40 11,-10 25,-15 43,-15 19,0 33,5 44,15 10,11 15,24 15,40 0,16 -5,28 -15,39 -11,10 -25,15 -44,15 -18,0 -32,-5 -43,-15 -9,-11 -15,-23 -15,-39z"/>
  <path id="26" class="fil10" d="M18429 5244c-65,0 -118,-21 -158,-62 -41,-41 -61,-95 -61,-163l0 -13c0,-46 9,-87 26,-122 18,-36 43,-64 75,-84 31,-20 67,-30 106,-30 62,0 110,20 144,59 34,40 51,96 51,169l0 42 -299 0c4,37 16,67 38,89 22,22 50,33 84,33 47,0 85,-19 115,-57l55 53c-18,27 -43,48 -73,63 -31,15 -65,23 -103,23zm-12 -392c-29,0 -51,10 -69,30 -17,19 -28,47 -33,82l196 0 0 -7c-2,-35 -12,-61 -28,-79 -16,-17 -38,-26 -66,-26z"/>
  <path id="27" class="fil10" d="M18948 5111c0,-18 -8,-32 -23,-42 -15,-9 -40,-18 -75,-25 -35,-7 -64,-17 -87,-28 -51,-25 -77,-61 -77,-108 0,-39 16,-72 50,-99 33,-26 75,-39 127,-39 54,0 98,13 132,40 33,27 50,62 50,105l-102 0c0,-19 -8,-36 -22,-49 -15,-13 -34,-19 -58,-19 -23,0 -41,5 -56,15 -14,11 -21,25 -21,42 0,16 7,28 20,37 13,9 40,17 80,26 40,9 72,20 95,32 23,12 40,27 51,44 11,17 17,38 17,63 0,41 -17,74 -51,100 -34,25 -79,38 -134,38 -38,0 -71,-7 -100,-21 -30,-13 -52,-32 -69,-55 -16,-24 -24,-50 -24,-77l99 0c2,24 11,43 28,56 17,13 39,20 67,20 27,0 48,-5 62,-16 14,-10 21,-23 21,-40z"/>
  <polygon class="fil11" points="3879,4448 4525,3333 5303,3686 5768,2613 5976,2702 5419,3988 4618,3624 4075,4562 "/>
 </g>
</svg>
